<svg xmlns="http://www.w3.org/2000/svg" width="640" height="400" viewBox="0 0 640 400">
    <defs>
      <linearGradient id="g" x1="0" x2="1" y1="0" y2="1">
        <stop offset="0" stop-color="#FBF7F2"/>
        <stop offset="1" stop-color="#F5EFE6"/>
      </linearGradient>
      <filter id="s" x="-20%" y="-20%" width="140%" height="140%">
        <feDropShadow dx="0" dy="10" stdDeviation="12" flood-color="#000" flood-opacity="0.12"/>
      </filter>
    </defs>
    <rect width="640" height="400" rx="28" fill="url(#g)"/>
    <g filter="url(#s)">
      <circle cx="210" cy="210" r="120" fill="#fff" stroke="rgba(0,0,0,0.06)" stroke-width="2"/>
      <circle cx="210" cy="210" r="92" fill="#F5EFE6"/>
      <path d="M410 120c45 8 78 34 92 73 8 23 7 47-2 72-16 43-56 74-104 82-16 3-33 3-51 0" fill="none" stroke="#3E7A4A" stroke-width="10" stroke-linecap="round"/>
      <path d="M420 110c18 14 30 30 36 48-22-4-42-2-61 6 4-22 12-40 25-54z" fill="#3E7A4A"/>
      <text x="360" y="245" font-family="Playfair Display, Georgia, serif" font-size="42" fill="#6B3E2E">Toasted Onion</text>
      <text x="360" y="285" font-family="Inter, system-ui, Arial" font-size="16" fill="rgba(30,26,22,0.75)">B2B wholesale formats</text>
      <!-- spice dots -->
      <g fill="#C8A25A" opacity="0.85">
        <circle cx="160" cy="180" r="4"/><circle cx="180" cy="240" r="3"/><circle cx="230" cy="160" r="3"/>
        <circle cx="245" cy="235" r="4"/><circle cx="195" cy="150" r="2.5"/><circle cx="215" cy="260" r="2.5"/>
      </g>
    </g>
  </svg>